{
  "version": "2.4.1",
  "zoom": 0.59460264444351196,
  "gridOffset": [
    -31.232421875,
    -1.2423313856124878
  ],
  "modules": [
    {
      "id": 5994996120046814,
      "plugin": "ImpromptuModular",
      "model": "Clocked-Clkd",
      "version": "2.0",
      "params": [
        {
          "value": 5.0,
          "id": 0
        },
        {
          "value": 0.0,
          "id": 1
        },
        {
          "value": 0.0,
          "id": 2
        },
        {
          "value": 30.0,
          "id": 3
        },
        {
          "value": 0.0,
          "id": 4
        },
        {
          "value": 0.0,
          "id": 5
        },
        {
          "value": 0.0,
          "id": 6
        },
        {
          "value": 0.0,
          "id": 7
        },
        {
          "value": 0.0,
          "id": 8
        },
        {
          "value": 0.0,
          "id": 9
        }
      ],
      "rightModuleId": 5698562332255670,
      "data": {
        "panelTheme": 1,
        "panelContrast": 220.0,
        "running": true,
        "bpmDetectionMode": false,
        "resetOnStartStop": 0,
        "ppqn": 4,
        "resetClockOutputsHigh": true,
        "momentaryRunInput": true,
        "forceCvOnBpmOut": false,
        "displayIndex": 0,
        "trigOuts": [
          false,
          false,
          false,
          false
        ],
        "clockMaster": -1
      },
      "pos": [
        -23,
        -1
      ]
    },
    {
      "id": 530284160540223,
      "plugin": "Bogaudio",
      "model": "Bogaudio-Mult",
      "version": "2.0",
      "params": [],
      "leftModuleId": 5698562332255670,
      "rightModuleId": 3708049367756536,
      "data": {},
      "pos": [
        -10,
        -1
      ]
    },
    {
      "id": 5698562332255670,
      "plugin": "Bogaudio",
      "model": "Bogaudio-Mult",
      "version": "2.0",
      "params": [],
      "leftModuleId": 5994996120046814,
      "rightModuleId": 530284160540223,
      "data": {},
      "pos": [
        -13,
        -1
      ]
    },
    {
      "id": 3708049367756536,
      "plugin": "Bogaudio",
      "model": "Bogaudio-Mult",
      "version": "2.0",
      "params": [],
      "leftModuleId": 530284160540223,
      "rightModuleId": 2200400879133260,
      "data": {},
      "pos": [
        -7,
        -1
      ]
    },
    {
      "id": 7023731719872543,
      "plugin": "Bogaudio",
      "model": "Bogaudio-ADSR",
      "version": "2.0",
      "params": [
        {
          "value": 0.059036128222942352,
          "id": 0
        },
        {
          "value": 0.31622999906539917,
          "id": 1
        },
        {
          "value": 0.71566283702850342,
          "id": 2
        },
        {
          "value": 0.31622999906539917,
          "id": 3
        },
        {
          "value": 0.0,
          "id": 4
        }
      ],
      "leftModuleId": 1554990523896113,
      "rightModuleId": 6778989213347276,
      "data": {
        "invert": 1.0
      },
      "pos": [
        62,
        0
      ]
    },
    {
      "id": 2710070220581847,
      "plugin": "Bogaudio",
      "model": "Bogaudio-ADSR",
      "version": "2.0",
      "params": [
        {
          "value": 0.12937282025814056,
          "id": 0
        },
        {
          "value": 0.31622999906539917,
          "id": 1
        },
        {
          "value": 1.0,
          "id": 2
        },
        {
          "value": 0.31622999906539917,
          "id": 3
        },
        {
          "value": 0.0,
          "id": 4
        }
      ],
      "leftModuleId": 7967469465253840,
      "rightModuleId": 5251838685816726,
      "data": {
        "invert": 1.0
      },
      "pos": [
        15,
        0
      ]
    },
    {
      "id": 2200400879133260,
      "plugin": "AlgoritmArte",
      "model": "MusiFrog",
      "version": "2.0",
      "params": [
        {
          "value": 0.0,
          "id": 0
        },
        {
          "value": 6.0,
          "id": 1
        },
        {
          "value": 11.0,
          "id": 2
        },
        {
          "value": 5.0,
          "id": 3
        },
        {
          "value": 11.0,
          "id": 4
        },
        {
          "value": 2.0,
          "id": 5
        },
        {
          "value": 1.0,
          "id": 6
        },
        {
          "value": 2.0,
          "id": 7
        },
        {
          "value": 8.0,
          "id": 8
        },
        {
          "value": 15.0,
          "id": 9
        },
        {
          "value": 14.0,
          "id": 10
        },
        {
          "value": 11.0,
          "id": 11
        },
        {
          "value": 7.0,
          "id": 12
        },
        {
          "value": 9.0,
          "id": 13
        },
        {
          "value": 6.0,
          "id": 14
        },
        {
          "value": 6.0,
          "id": 15
        },
        {
          "value": 13.0,
          "id": 16
        },
        {
          "value": 0.0,
          "id": 17
        },
        {
          "value": 60.0,
          "id": 18
        },
        {
          "value": 0.0,
          "id": 19
        },
        {
          "value": 1.0,
          "id": 20
        },
        {
          "value": 13.0,
          "id": 21
        },
        {
          "value": 0.0,
          "id": 22
        }
      ],
      "leftModuleId": 3708049367756536,
      "rightModuleId": 6216367369003307,
      "data": {
        "holdsame": false,
        "gatemode": true,
        "scales": [
          0,
          2,
          4,
          5,
          7,
          9,
          11,
          12,
          14,
          16,
          17,
          19,
          21,
          23,
          24,
          26,
          9,
          11,
          12,
          14,
          16,
          17,
          19,
          21,
          23,
          24,
          26,
          28,
          29,
          31,
          33,
          35,
          0,
          2,
          4,
          7,
          9,
          12,
          14,
          16,
          19,
          16,
          14,
          12,
          9,
          7,
          4,
          2,
          4,
          5,
          7,
          9,
          11,
          12,
          14,
          16,
          17,
          16,
          14,
          12,
          11,
          9,
          7,
          5
        ]
      },
      "pos": [
        -4,
        -1
      ]
    },
    {
      "id": 5861176669117263,
      "plugin": "AnimatedCircuits",
      "model": "ACLFold",
      "version": "2.0",
      "params": [
        {
          "value": 0.23845776915550232,
          "id": 0
        },
        {
          "value": 0.0,
          "id": 1
        },
        {
          "value": 0.0,
          "id": 2
        },
        {
          "value": 2.5,
          "id": 3
        },
        {
          "value": 0.0,
          "id": 4
        },
        {
          "value": 0.0,
          "id": 5
        },
        {
          "value": 0.0,
          "id": 6
        },
        {
          "value": 0.0,
          "id": 7
        },
        {
          "value": 0.0,
          "id": 8
        },
        {
          "value": 0.0,
          "id": 9
        },
        {
          "value": 0.0,
          "id": 10
        }
      ],
      "leftModuleId": 240663416572480,
      "rightModuleId": 7350243591042263,
      "pos": [
        26,
        -1
      ]
    },
    {
      "id": 7350243591042263,
      "plugin": "Fundamental",
      "model": "Scope",
      "version": "2.0",
      "params": [
        {
          "value": 0.0,
          "id": 0
        },
        {
          "value": 0.0,
          "id": 1
        },
        {
          "value": 0.0,
          "id": 2
        },
        {
          "value": 0.0,
          "id": 3
        },
        {
          "value": 1.0,
          "id": 4
        },
        {
          "value": 0.0,
          "id": 5
        },
        {
          "value": 0.0,
          "id": 6
        },
        {
          "value": 1.0,
          "id": 7
        }
      ],
      "leftModuleId": 5861176669117263,
      "rightModuleId": 1580729223608153,
      "pos": [
        31,
        -1
      ]
    },
    {
      "id": 8196572981455584,
      "plugin": "Bogaudio",
      "model": "Bogaudio-Mult",
      "version": "2.0",
      "params": [],
      "leftModuleId": 1580729223608153,
      "rightModuleId": 4831645834992317,
      "data": {},
      "pos": [
        50,
        -1
      ]
    },
    {
      "id": 1580729223608153,
      "plugin": "Befaco",
      "model": "ABC",
      "version": "2.0",
      "params": [
        {
          "value": -0.49397563934326172,
          "id": 0
        },
        {
          "value": 0.70602428913116455,
          "id": 1
        },
        {
          "value": 0.0,
          "id": 2
        },
        {
          "value": 0.0,
          "id": 3
        }
      ],
      "leftModuleId": 7350243591042263,
      "rightModuleId": 8196572981455584,
      "pos": [
        44,
        -1
      ]
    },
    {
      "id": 240663416572480,
      "plugin": "Bogaudio",
      "model": "Bogaudio-Mult",
      "version": "2.0",
      "params": [],
      "leftModuleId": 7821438679700373,
      "rightModuleId": 5861176669117263,
      "data": {},
      "pos": [
        23,
        -1
      ]
    },
    {
      "id": 6216367369003307,
      "plugin": "AriaSalvatrice",
      "model": "Quack",
      "version": "2.0",
      "params": [
        {
          "value": 0.0,
          "id": 0
        },
        {
          "value": 1.0,
          "id": 1
        },
        {
          "value": 0.0,
          "id": 2
        },
        {
          "value": 1.0,
          "id": 3
        },
        {
          "value": 1.0,
          "id": 4
        },
        {
          "value": 0.0,
          "id": 5
        },
        {
          "value": 0.0,
          "id": 6
        },
        {
          "value": 0.0,
          "id": 7
        },
        {
          "value": 1.0,
          "id": 8
        },
        {
          "value": 1.0,
          "id": 9
        },
        {
          "value": 0.0,
          "id": 10
        },
        {
          "value": 0.0,
          "id": 11
        },
        {
          "value": 100.0,
          "id": 12
        },
        {
          "value": 100.0,
          "id": 13
        },
        {
          "value": 100.0,
          "id": 14
        },
        {
          "value": 100.0,
          "id": 15
        },
        {
          "value": 0.0,
          "id": 16
        },
        {
          "value": 0.0,
          "id": 17
        },
        {
          "value": 0.0,
          "id": 18
        },
        {
          "value": 0.0,
          "id": 19
        },
        {
          "value": 0.0,
          "id": 20
        },
        {
          "value": 0.0,
          "id": 21
        },
        {
          "value": 0.0,
          "id": 22
        },
        {
          "value": 0.0,
          "id": 23
        },
        {
          "value": 0.0,
          "id": 24
        },
        {
          "value": 0.0,
          "id": 25
        },
        {
          "value": 0.0,
          "id": 26
        },
        {
          "value": 0.0,
          "id": 27
        },
        {
          "value": 0.0,
          "id": 28
        },
        {
          "value": 0.0,
          "id": 29
        },
        {
          "value": 0.0,
          "id": 30
        },
        {
          "value": 0.0,
          "id": 31
        },
        {
          "value": 1.0,
          "id": 32
        },
        {
          "value": 0.0,
          "id": 33
        },
        {
          "value": 0.0,
          "id": 34
        },
        {
          "value": 0.0,
          "id": 35
        },
        {
          "value": 1.0,
          "id": 36
        },
        {
          "value": 0.0,
          "id": 37
        },
        {
          "value": 0.0,
          "id": 38
        },
        {
          "value": 0.0,
          "id": 39
        },
        {
          "value": 0.0,
          "id": 40
        },
        {
          "value": 0.0,
          "id": 41
        },
        {
          "value": 0.0,
          "id": 42
        },
        {
          "value": 0.0,
          "id": 43
        },
        {
          "value": 0.0,
          "id": 44
        },
        {
          "value": 0.0,
          "id": 45
        },
        {
          "value": 0.0,
          "id": 46
        },
        {
          "value": 0.0,
          "id": 47
        },
        {
          "value": 0.0,
          "id": 48
        },
        {
          "value": 0.0,
          "id": 49
        },
        {
          "value": 0.0,
          "id": 50
        },
        {
          "value": 0.0,
          "id": 51
        },
        {
          "value": 1.0,
          "id": 52
        },
        {
          "value": 2.0,
          "id": 53
        },
        {
          "value": 0.0,
          "id": 54
        }
      ],
      "leftModuleId": 2200400879133260,
      "rightModuleId": 5539001831766002,
      "data": {
        "sceneTrigSelection": false,
        "scene": 0,
        "scenes": [
          [
            false,
            true,
            false,
            true,
            true,
            false,
            false,
            false,
            true,
            true,
            false,
            false
          ],
          [
            false,
            false,
            false,
            false,
            false,
            false,
            false,
            false,
            false,
            false,
            false,
            false
          ],
          [
            false,
            false,
            false,
            false,
            false,
            false,
            false,
            false,
            false,
            false,
            false,
            false
          ],
          [
            false,
            false,
            false,
            false,
            false,
            false,
            false,
            false,
            false,
            false,
            false,
            false
          ],
          [
            false,
            false,
            false,
            false,
            false,
            false,
            false,
            false,
            false,
            false,
            false,
            false
          ],
          [
            false,
            false,
            false,
            false,
            false,
            false,
            false,
            false,
            false,
            false,
            false,
            false
          ],
          [
            false,
            false,
            false,
            false,
            false,
            false,
            false,
            false,
            false,
            false,
            false,
            false
          ],
          [
            false,
            false,
            false,
            false,
            false,
            false,
            false,
            false,
            false,
            false,
            false,
            false
          ],
          [
            false,
            false,
            false,
            false,
            false,
            false,
            false,
            false,
            false,
            false,
            false,
            false
          ],
          [
            false,
            false,
            false,
            false,
            false,
            false,
            false,
            false,
            false,
            false,
            false,
            false
          ],
          [
            false,
            false,
            false,
            false,
            false,
            false,
            false,
            false,
            false,
            false,
            false,
            false
          ],
          [
            false,
            false,
            false,
            false,
            false,
            false,
            false,
            false,
            false,
            false,
            false,
            false
          ],
          [
            false,
            false,
            false,
            false,
            false,
            false,
            false,
            false,
            false,
            false,
            false,
            false
          ],
          [
            false,
            false,
            false,
            false,
            false,
            false,
            false,
            false,
            false,
            false,
            false,
            false
          ],
          [
            false,
            false,
            false,
            false,
            false,
            false,
            false,
            false,
            false,
            false,
            false,
            false
          ],
          [
            false,
            false,
            false,
            false,
            false,
            false,
            false,
            false,
            false,
            false,
            false,
            false
          ]
        ]
      },
      "pos": [
        4,
        -1
      ]
    },
    {
      "id": 5539001831766002,
      "plugin": "Bogaudio",
      "model": "Bogaudio-Mult",
      "version": "2.0",
      "params": [],
      "leftModuleId": 6216367369003307,
      "rightModuleId": 7821438679700373,
      "data": {},
      "pos": [
        11,
        -1
      ]
    },
    {
      "id": 1554990523896113,
      "plugin": "21kHz",
      "model": "kHzPalmLoop",
      "version": "2.0",
      "params": [
        {
          "value": 9.0,
          "id": 0
        },
        {
          "value": 0.0,
          "id": 1
        },
        {
          "value": 0.0,
          "id": 2
        },
        {
          "value": 0.0,
          "id": 3
        },
        {
          "value": 0.0,
          "id": 4
        }
      ],
      "leftModuleId": 5063357903647992,
      "rightModuleId": 7023731719872543,
      "pos": [
        54,
        0
      ]
    },
    {
      "id": 6778989213347276,
      "plugin": "Bogaudio",
      "model": "Bogaudio-Mix2",
      "version": "2.0",
      "params": [
        {
          "value": 0.90909093618392944,
          "id": 0
        },
        {
          "value": 0.0,
          "id": 1
        }
      ],
      "leftModuleId": 7023731719872543,
      "rightModuleId": 2913276366625506,
      "data": {
        "poly_channel_offset": -1
      },
      "pos": [
        65,
        0
      ]
    },
    {
      "id": 2913276366625506,
      "plugin": "AudibleInstruments",
      "model": "Clouds",
      "version": "2.0",
      "params": [
        {
          "value": 0.0,
          "id": 0
        },
        {
          "value": 0.0,
          "id": 1
        },
        {
          "value": 0.0,
          "id": 2
        },
        {
          "value": 0.5,
          "id": 3
        },
        {
          "value": 0.74337363243103027,
          "id": 4
        },
        {
          "value": 0.0,
          "id": 5
        },
        {
          "value": 1.0,
          "id": 6
        },
        {
          "value": 0.72771114110946655,
          "id": 7
        },
        {
          "value": 0.5,
          "id": 8
        },
        {
          "value": 0.5,
          "id": 9
        },
        {
          "value": 0.0,
          "id": 10
        },
        {
          "value": 0.0,
          "id": 11
        },
        {
          "value": 0.83494025468826294,
          "id": 12
        }
      ],
      "leftModuleId": 6778989213347276,
      "data": {
        "playback": 0,
        "quality": 0,
        "blendMode": 3
      },
      "pos": [
        70,
        0
      ]
    },
    {
      "id": 7967469465253840,
      "plugin": "21kHz",
      "model": "kHzPalmLoop",
      "version": "2.0",
      "params": [
        {
          "value": 10.0,
          "id": 0
        },
        {
          "value": 0.0,
          "id": 1
        },
        {
          "value": 0.0,
          "id": 2
        },
        {
          "value": 0.0,
          "id": 3
        },
        {
          "value": 0.0,
          "id": 4
        }
      ],
      "leftModuleId": 341955005948271,
      "rightModuleId": 2710070220581847,
      "pos": [
        7,
        0
      ]
    },
    {
      "id": 5251838685816726,
      "plugin": "Bogaudio",
      "model": "Bogaudio-Mix2",
      "version": "2.0",
      "params": [
        {
          "value": 0.90909093618392944,
          "id": 0
        },
        {
          "value": 0.0,
          "id": 1
        }
      ],
      "leftModuleId": 2710070220581847,
      "rightModuleId": 5063357903647992,
      "data": {
        "poly_channel_offset": -1
      },
      "pos": [
        18,
        0
      ]
    },
    {
      "id": 5063357903647992,
      "plugin": "ParableInstruments",
      "model": "Neil",
      "version": "2.0",
      "params": [
        {
          "value": 0.5,
          "id": 0
        },
        {
          "value": 0.64819306135177612,
          "id": 1
        },
        {
          "value": 0.0,
          "id": 2
        },
        {
          "value": 1.0,
          "id": 3
        },
        {
          "value": 0.65662717819213867,
          "id": 4
        },
        {
          "value": 0.5,
          "id": 5
        },
        {
          "value": 0.5,
          "id": 6
        },
        {
          "value": 0.70120543241500854,
          "id": 7
        },
        {
          "value": 0.62409782409667969,
          "id": 8
        },
        {
          "value": 0.84578627347946167,
          "id": 9
        },
        {
          "value": 0.0,
          "id": 10
        },
        {
          "value": 0.0,
          "id": 11
        }
      ],
      "leftModuleId": 5251838685816726,
      "rightModuleId": 1554990523896113,
      "data": {
        "playbackmode": 0,
        "lofi": false,
        "mono": false,
        "freeze": false,
        "buffersize": 1,
        "reverse": 0
      },
      "pos": [
        23,
        0
      ]
    },
    {
      "id": 1953088662896473,
      "plugin": "mscHack",
      "model": "Mix_4_0_4",
      "version": "2.0",
      "params": [
        {
          "value": 0.5,
          "id": 0
        },
        {
          "value": 0.68200385570526123,
          "id": 1
        },
        {
          "value": 0.54800349473953247,
          "id": 2
        },
        {
          "value": 0.0,
          "id": 3
        },
        {
          "value": 0.0,
          "id": 4
        },
        {
          "value": 1.0,
          "id": 5
        },
        {
          "value": 0.0,
          "id": 6
        },
        {
          "value": 0.0,
          "id": 7
        },
        {
          "value": 0.0,
          "id": 8
        },
        {
          "value": 0.0,
          "id": 9
        },
        {
          "value": 0.0,
          "id": 10
        },
        {
          "value": 0.0,
          "id": 11
        },
        {
          "value": 0.0,
          "id": 12
        },
        {
          "value": 0.0,
          "id": 13
        },
        {
          "value": 0.0,
          "id": 14
        },
        {
          "value": 0.0,
          "id": 15
        },
        {
          "value": 0.0,
          "id": 16
        },
        {
          "value": 0.5,
          "id": 17
        },
        {
          "value": 0.5,
          "id": 18
        },
        {
          "value": 0.5,
          "id": 19
        },
        {
          "value": 0.5,
          "id": 20
        },
        {
          "value": 0.5,
          "id": 21
        },
        {
          "value": 0.5,
          "id": 22
        },
        {
          "value": 0.5,
          "id": 23
        },
        {
          "value": 0.5,
          "id": 24
        },
        {
          "value": 0.5,
          "id": 25
        },
        {
          "value": 0.5,
          "id": 26
        },
        {
          "value": 0.5,
          "id": 27
        },
        {
          "value": 0.5,
          "id": 28
        },
        {
          "value": 0.5,
          "id": 29
        },
        {
          "value": 0.5,
          "id": 30
        },
        {
          "value": 0.5,
          "id": 31
        },
        {
          "value": 0.5,
          "id": 32
        },
        {
          "value": 0.5,
          "id": 33
        },
        {
          "value": 0.5,
          "id": 34
        },
        {
          "value": 0.5,
          "id": 35
        },
        {
          "value": 0.5,
          "id": 36
        },
        {
          "value": 0.5,
          "id": 37
        },
        {
          "value": 0.5,
          "id": 38
        },
        {
          "value": 0.5,
          "id": 39
        },
        {
          "value": 0.5,
          "id": 40
        },
        {
          "value": 0.77831357717514038,
          "id": 41
        },
        {
          "value": 0.0,
          "id": 42
        },
        {
          "value": 0.0,
          "id": 43
        },
        {
          "value": 0.0,
          "id": 44
        },
        {
          "value": 0.32289153337478638,
          "id": 45
        },
        {
          "value": 0.0,
          "id": 46
        },
        {
          "value": 0.0,
          "id": 47
        },
        {
          "value": 0.0,
          "id": 48
        },
        {
          "value": 0.0,
          "id": 49
        },
        {
          "value": 0.0,
          "id": 50
        },
        {
          "value": 0.0,
          "id": 51
        },
        {
          "value": 0.0,
          "id": 52
        },
        {
          "value": 0.0,
          "id": 53
        },
        {
          "value": 0.0,
          "id": 54
        },
        {
          "value": 0.0,
          "id": 55
        },
        {
          "value": 0.0,
          "id": 56
        },
        {
          "value": 0.77831321954727173,
          "id": 57
        },
        {
          "value": 0.0,
          "id": 58
        },
        {
          "value": 0.0,
          "id": 59
        },
        {
          "value": 0.0,
          "id": 60
        }
      ],
      "leftModuleId": 4831645834992317,
      "rightModuleId": 3207332549249053,
      "data": {
        "m_bMuteStates": [
          false,
          false,
          false,
          false,
          false,
          false,
          false,
          false
        ],
        "m_bSoloStates": [
          false,
          false,
          false,
          false,
          false,
          false,
          false,
          false
        ],
        "m_bGroupPreMute": [
          true
        ],
        "m_bGainLevelx2": [
          false
        ],
        "m_bPreFader": [
          false,
          false,
          false,
          false
        ],
        "m_bAuxIgnoreSolo": [
          false
        ]
      },
      "pos": [
        65,
        -1
      ]
    },
    {
      "id": 4831645834992317,
      "plugin": "Valley",
      "model": "Plateau",
      "version": "2.0",
      "params": [
        {
          "value": 0.18571428954601288,
          "id": 0
        },
        {
          "value": 0.5,
          "id": 1
        },
        {
          "value": 0.0,
          "id": 2
        },
        {
          "value": 10.0,
          "id": 3
        },
        {
          "value": 10.0,
          "id": 4
        },
        {
          "value": 0.5,
          "id": 5
        },
        {
          "value": 10.0,
          "id": 6
        },
        {
          "value": 0.5499500036239624,
          "id": 7
        },
        {
          "value": 10.0,
          "id": 8
        },
        {
          "value": 10.0,
          "id": 9
        },
        {
          "value": 0.0,
          "id": 10
        },
        {
          "value": 0.5,
          "id": 11
        },
        {
          "value": 0.5,
          "id": 12
        },
        {
          "value": 0.0,
          "id": 13
        },
        {
          "value": 0.0,
          "id": 14
        },
        {
          "value": 0.0,
          "id": 15
        },
        {
          "value": 0.0,
          "id": 16
        },
        {
          "value": 0.0,
          "id": 17
        },
        {
          "value": 0.0,
          "id": 18
        },
        {
          "value": 0.0,
          "id": 19
        },
        {
          "value": 0.0,
          "id": 20
        },
        {
          "value": 0.0,
          "id": 21
        },
        {
          "value": 0.0,
          "id": 22
        },
        {
          "value": 0.0,
          "id": 23
        },
        {
          "value": 0.0,
          "id": 24
        },
        {
          "value": 0.0,
          "id": 25
        },
        {
          "value": 0.0,
          "id": 26
        },
        {
          "value": 0.0,
          "id": 27
        },
        {
          "value": 0.0,
          "id": 28
        },
        {
          "value": 0.0,
          "id": 29
        },
        {
          "value": 1.0,
          "id": 30
        }
      ],
      "leftModuleId": 8196572981455584,
      "rightModuleId": 1953088662896473,
      "data": {
        "frozen": false,
        "freezeToggle": false,
        "panelStyle": 0,
        "tuned": 0,
        "diffuseInput": 1,
        "preDelayCVSens": 0,
        "inputSensitivity": 0,
        "outputSaturation": 0
      },
      "pos": [
        53,
        -1
      ]
    },
    {
      "id": 341955005948271,
      "plugin": "Cardinal",
      "model": "TextEditor",
      "version": "2.0",
      "params": [],
      "rightModuleId": 7967469465253840,
      "data": {
        "filepath": "",
        "lang": "None",
        "etext": "           -`                     nooneknows\n                 .o+`                    \n                `ooo/                    \n               `+oooo:                   \n              `+oooooo:                  \n              -+oooooo+:                 \n            `/:-:++oooo+:                \n           `/++++/+++++++:               \n          `/++++++++++++++:              \n         `/+++ooooooooooooo/`            \n        ./ooosssso++osssssso+`           \n       .oossssso-````/ossssss+`          \n      -osssssso.      :ssssssso.         \n     :osssssss/        osssso+++.        \n    /ossssssss/        +ssssooo/-        \n  `/ossssso+/:-        -:/+osssso+-      \n `+sso+:-`                 `.-/+oso:     \n`++:.                           `-/+/    \n.`                                 `/    \n                                       \nI USE ARCH BTW\n\n\n",
        "width": 30
      },
      "pos": [
        -23,
        0
      ]
    },
    {
      "id": 3207332549249053,
      "plugin": "Cardinal",
      "model": "HostAudio2",
      "version": "2.0",
      "params": [
        {
          "value": 1.8120003938674927,
          "id": 0
        }
      ],
      "leftModuleId": 1953088662896473,
      "data": {
        "dcFilter": true
      },
      "pos": [
        85,
        -1
      ]
    },
    {
      "id": 7821438679700373,
      "plugin": "Cardinal",
      "model": "HostMIDI",
      "version": "2.0",
      "params": [],
      "leftModuleId": 5539001831766002,
      "rightModuleId": 240663416572480,
      "data": {
        "pwRange": 0.0,
        "smooth": false,
        "forceGateGaps": false,
        "channels": 6,
        "polyMode": 0,
        "lastPitch": 8192,
        "lastMod": 0,
        "inputChannel": 0,
        "outputChannel": 0
      },
      "pos": [
        14,
        -1
      ]
    }
  ],
  "cables": [
    {
      "id": 7749134217660786,
      "outputModuleId": 5994996120046814,
      "outputId": 1,
      "inputModuleId": 3708049367756536,
      "inputId": 0,
      "color": "#ff9352"
    },
    {
      "id": 3076802187426410,
      "outputModuleId": 3708049367756536,
      "outputId": 0,
      "inputModuleId": 2200400879133260,
      "inputId": 0,
      "color": "#ffd452"
    },
    {
      "id": 1332589484300057,
      "outputModuleId": 1953088662896473,
      "outputId": 0,
      "inputModuleId": 3207332549249053,
      "inputId": 0,
      "color": "#e952ff"
    },
    {
      "id": 5109639264571339,
      "outputModuleId": 1953088662896473,
      "outputId": 1,
      "inputModuleId": 3207332549249053,
      "inputId": 1,
      "color": "#ff52d4"
    },
    {
      "id": 3215854644337297,
      "outputModuleId": 7967469465253840,
      "outputId": 2,
      "inputModuleId": 5251838685816726,
      "inputId": 3,
      "color": "#52ff7d"
    },
    {
      "id": 1306343166105282,
      "outputModuleId": 7967469465253840,
      "outputId": 2,
      "inputModuleId": 5251838685816726,
      "inputId": 2,
      "color": "#67ff52"
    },
    {
      "id": 8671327521202156,
      "outputModuleId": 5251838685816726,
      "outputId": 0,
      "inputModuleId": 5063357903647992,
      "inputId": 9,
      "color": "#e8ff52"
    },
    {
      "id": 8483306405111268,
      "outputModuleId": 5251838685816726,
      "outputId": 1,
      "inputModuleId": 5063357903647992,
      "inputId": 10,
      "color": "#a852ff"
    },
    {
      "id": 5951949850384206,
      "outputModuleId": 5994996120046814,
      "outputId": 4,
      "inputModuleId": 530284160540223,
      "inputId": 0,
      "color": "#67ff52"
    },
    {
      "id": 2372306144156428,
      "outputModuleId": 5994996120046814,
      "outputId": 5,
      "inputModuleId": 530284160540223,
      "inputId": 1,
      "color": "#52ff7d"
    },
    {
      "id": 833949621749280,
      "outputModuleId": 530284160540223,
      "outputId": 0,
      "inputModuleId": 2200400879133260,
      "inputId": 1,
      "color": "#a852ff"
    },
    {
      "id": 1885120062087379,
      "outputModuleId": 7821438679700373,
      "outputId": 0,
      "inputModuleId": 240663416572480,
      "inputId": 0,
      "color": "#ff52d4"
    },
    {
      "id": 4134157272520950,
      "outputModuleId": 7821438679700373,
      "outputId": 1,
      "inputModuleId": 240663416572480,
      "inputId": 1,
      "color": "#ff5293"
    },
    {
      "id": 3798258861540406,
      "outputModuleId": 240663416572480,
      "outputId": 1,
      "inputModuleId": 6216367369003307,
      "inputId": 8,
      "color": "#ffd452"
    },
    {
      "id": 6023372218017000,
      "outputModuleId": 4831645834992317,
      "outputId": 0,
      "inputModuleId": 1953088662896473,
      "inputId": 4,
      "color": "#a8ff52"
    },
    {
      "id": 4738789184038909,
      "outputModuleId": 4831645834992317,
      "outputId": 1,
      "inputModuleId": 1953088662896473,
      "inputId": 12,
      "color": "#67ff52"
    },
    {
      "id": 6263533838459406,
      "outputModuleId": 1953088662896473,
      "outputId": 2,
      "inputModuleId": 4831645834992317,
      "inputId": 0,
      "color": "#52ff7d"
    },
    {
      "id": 4691994682916913,
      "outputModuleId": 1953088662896473,
      "outputId": 6,
      "inputModuleId": 4831645834992317,
      "inputId": 1,
      "color": "#52ffbe"
    },
    {
      "id": 7455051496591578,
      "outputModuleId": 5063357903647992,
      "outputId": 1,
      "inputModuleId": 1953088662896473,
      "inputId": 8,
      "color": "#52beff"
    },
    {
      "id": 8252839540512045,
      "outputModuleId": 5063357903647992,
      "outputId": 0,
      "inputModuleId": 1953088662896473,
      "inputId": 0,
      "color": "#527dff"
    },
    {
      "id": 3170279568962039,
      "outputModuleId": 3708049367756536,
      "outputId": 3,
      "inputModuleId": 2710070220581847,
      "inputId": 0,
      "color": "#a852ff"
    },
    {
      "id": 8799896991338906,
      "outputModuleId": 2710070220581847,
      "outputId": 0,
      "inputModuleId": 5251838685816726,
      "inputId": 0,
      "color": "#ff52d4"
    },
    {
      "id": 7351527540022517,
      "outputModuleId": 2200400879133260,
      "outputId": 0,
      "inputModuleId": 1580729223608153,
      "inputId": 0,
      "color": "#52beff"
    },
    {
      "id": 2200803235470402,
      "outputModuleId": 1580729223608153,
      "outputId": 0,
      "inputModuleId": 6216367369003307,
      "inputId": 0,
      "color": "#ff5293"
    },
    {
      "id": 4346791741494205,
      "outputModuleId": 5861176669117263,
      "outputId": 1,
      "inputModuleId": 7350243591042263,
      "inputId": 0,
      "color": "#ff5293"
    },
    {
      "id": 8273995099058101,
      "outputModuleId": 1554990523896113,
      "outputId": 0,
      "inputModuleId": 6778989213347276,
      "inputId": 2,
      "color": "#a8ff52"
    },
    {
      "id": 115610428909086,
      "outputModuleId": 1554990523896113,
      "outputId": 0,
      "inputModuleId": 6778989213347276,
      "inputId": 3,
      "color": "#67ff52"
    },
    {
      "id": 5804380761299550,
      "outputModuleId": 6216367369003307,
      "outputId": 0,
      "inputModuleId": 5539001831766002,
      "inputId": 0,
      "color": "#52ffff"
    },
    {
      "id": 6823590256235954,
      "outputModuleId": 5539001831766002,
      "outputId": 0,
      "inputModuleId": 7967469465253840,
      "inputId": 1,
      "color": "#52ff7d"
    },
    {
      "id": 2069532288805532,
      "outputModuleId": 7350243591042263,
      "outputId": 0,
      "inputModuleId": 8196572981455584,
      "inputId": 0,
      "color": "#ff5252"
    },
    {
      "id": 4779556395122676,
      "outputModuleId": 8196572981455584,
      "outputId": 0,
      "inputModuleId": 1580729223608153,
      "inputId": 2,
      "color": "#52ffff"
    },
    {
      "id": 6961872370427834,
      "outputModuleId": 5539001831766002,
      "outputId": 1,
      "inputModuleId": 1554990523896113,
      "inputId": 1,
      "color": "#a852ff"
    },
    {
      "id": 3498459879433378,
      "outputModuleId": 7023731719872543,
      "outputId": 0,
      "inputModuleId": 6778989213347276,
      "inputId": 0,
      "color": "#e952ff"
    },
    {
      "id": 4720796129465150,
      "outputModuleId": 3708049367756536,
      "outputId": 4,
      "inputModuleId": 7023731719872543,
      "inputId": 0,
      "color": "#ff52d4"
    },
    {
      "id": 3818360698320612,
      "outputModuleId": 6778989213347276,
      "outputId": 0,
      "inputModuleId": 2913276366625506,
      "inputId": 6,
      "color": "#ff9352"
    },
    {
      "id": 20651116606807,
      "outputModuleId": 6778989213347276,
      "outputId": 1,
      "inputModuleId": 2913276366625506,
      "inputId": 7,
      "color": "#ffd452"
    },
    {
      "id": 199228822301105,
      "outputModuleId": 2913276366625506,
      "outputId": 0,
      "inputModuleId": 1953088662896473,
      "inputId": 1,
      "color": "#ff5252"
    },
    {
      "id": 2128733730938611,
      "outputModuleId": 2913276366625506,
      "outputId": 1,
      "inputModuleId": 1953088662896473,
      "inputId": 9,
      "color": "#ff9352"
    },
    {
      "id": 7095999602947331,
      "outputModuleId": 5994996120046814,
      "outputId": 2,
      "inputModuleId": 5698562332255670,
      "inputId": 0,
      "color": "#e8ff52"
    },
    {
      "id": 8897053259957294,
      "outputModuleId": 5698562332255670,
      "outputId": 0,
      "inputModuleId": 5861176669117263,
      "inputId": 1,
      "color": "#ff9352"
    }
  ]
}
