{
  "version": "2.4.1",
  "zoom": 0.84089511632919312,
  "gridOffset": [
    -25.323307037353516,
    0.15174753963947296
  ],
  "modules": [
    {
      "id": 8337680590640370,
      "plugin": "WSTD-Drums",
      "model": "Gnome",
      "version": "2.0",
      "params": [
        {
          "value": 99.387519836425781,
          "id": 0
        },
        {
          "value": 0.34999999403953552,
          "id": 1
        },
        {
          "value": 0.0,
          "id": 2
        },
        {
          "value": 0.0,
          "id": 3
        }
      ],
      "rightModuleId": 1950096770788738,
      "data": {
        "running": true
      },
      "pos": [
        -45,
        0
      ]
    },
    {
      "id": 3062073080645552,
      "plugin": "Fundamental",
      "model": "LFO2",
      "version": "2.0",
      "params": [
        {
          "value": 0.0,
          "id": 0
        },
        {
          "value": 0.0,
          "id": 1
        },
        {
          "value": -4.1180763244628906,
          "id": 2
        },
        {
          "value": 0.0,
          "id": 3
        },
        {
          "value": 0.0,
          "id": 4
        },
        {
          "value": 0.0,
          "id": 5
        }
      ],
      "rightModuleId": 3367264330133207,
      "data": {
        "waveLen": 1024,
        "filename": "Basic.wav"
      },
      "pos": [
        -37,
        3
      ]
    },
    {
      "id": 3367264330133207,
      "plugin": "Fundamental",
      "model": "Scope",
      "version": "2.0",
      "params": [
        {
          "value": 0.0,
          "id": 0
        },
        {
          "value": 0.0,
          "id": 1
        },
        {
          "value": 0.0,
          "id": 2
        },
        {
          "value": 0.0,
          "id": 3
        },
        {
          "value": 1.0,
          "id": 4
        },
        {
          "value": 0.0,
          "id": 5
        },
        {
          "value": 0.0,
          "id": 6
        },
        {
          "value": 1.0,
          "id": 7
        }
      ],
      "leftModuleId": 3062073080645552,
      "rightModuleId": 8252736124034140,
      "pos": [
        -30,
        3
      ]
    },
    {
      "id": 675162193045537,
      "plugin": "AriaSalvatrice",
      "model": "Darius",
      "version": "2.0",
      "params": [
        {
          "value": 7.8272600173950195,
          "id": 0
        },
        {
          "value": 1.3418620824813843,
          "id": 1
        },
        {
          "value": 4.4836430549621582,
          "id": 2
        },
        {
          "value": 6.9216108322143555,
          "id": 3
        },
        {
          "value": 2.2637348175048828,
          "id": 4
        },
        {
          "value": 3.7306702136993408,
          "id": 5
        },
        {
          "value": 1.4135396480560303,
          "id": 6
        },
        {
          "value": 8.5588588714599609,
          "id": 7
        },
        {
          "value": 3.4628095626831055,
          "id": 8
        },
        {
          "value": 4.0556674003601074,
          "id": 9
        },
        {
          "value": 6.976658821105957,
          "id": 10
        },
        {
          "value": 0.7801811695098877,
          "id": 11
        },
        {
          "value": 5.0890803337097168,
          "id": 12
        },
        {
          "value": 9.6124773025512695,
          "id": 13
        },
        {
          "value": 7.1084408760070801,
          "id": 14
        },
        {
          "value": 1.5246607065200806,
          "id": 15
        },
        {
          "value": 3.3358864784240723,
          "id": 16
        },
        {
          "value": 4.7302570343017578,
          "id": 17
        },
        {
          "value": 5.3996233940124512,
          "id": 18
        },
        {
          "value": 8.9317836761474609,
          "id": 19
        },
        {
          "value": 9.7346601486206055,
          "id": 20
        },
        {
          "value": 3.384610652923584,
          "id": 21
        },
        {
          "value": 3.7095153331756592,
          "id": 22
        },
        {
          "value": 8.0463047027587891,
          "id": 23
        },
        {
          "value": 0.67900866270065308,
          "id": 24
        },
        {
          "value": 8.153010368347168,
          "id": 25
        },
        {
          "value": 6.1938815116882324,
          "id": 26
        },
        {
          "value": 2.8349850177764893,
          "id": 27
        },
        {
          "value": 0.24718615412712097,
          "id": 28
        },
        {
          "value": 8.8153762817382812,
          "id": 29
        },
        {
          "value": 2.8868088722229004,
          "id": 30
        },
        {
          "value": 5.5528287887573242,
          "id": 31
        },
        {
          "value": 0.15520375967025757,
          "id": 32
        },
        {
          "value": 9.2601699829101562,
          "id": 33
        },
        {
          "value": 5.8950052261352539,
          "id": 34
        },
        {
          "value": 5.5671882629394531,
          "id": 35
        },
        {
          "value": 0.5,
          "id": 36
        },
        {
          "value": 0.5,
          "id": 37
        },
        {
          "value": 0.5,
          "id": 38
        },
        {
          "value": 0.5,
          "id": 39
        },
        {
          "value": 0.5,
          "id": 40
        },
        {
          "value": 0.5,
          "id": 41
        },
        {
          "value": 0.5,
          "id": 42
        },
        {
          "value": 0.5,
          "id": 43
        },
        {
          "value": 0.5,
          "id": 44
        },
        {
          "value": 0.5,
          "id": 45
        },
        {
          "value": 0.5,
          "id": 46
        },
        {
          "value": 0.5,
          "id": 47
        },
        {
          "value": 0.5,
          "id": 48
        },
        {
          "value": 0.5,
          "id": 49
        },
        {
          "value": 0.5,
          "id": 50
        },
        {
          "value": 0.5,
          "id": 51
        },
        {
          "value": 0.5,
          "id": 52
        },
        {
          "value": 0.5,
          "id": 53
        },
        {
          "value": 0.5,
          "id": 54
        },
        {
          "value": 0.5,
          "id": 55
        },
        {
          "value": 0.5,
          "id": 56
        },
        {
          "value": 0.5,
          "id": 57
        },
        {
          "value": 0.5,
          "id": 58
        },
        {
          "value": 0.5,
          "id": 59
        },
        {
          "value": 0.5,
          "id": 60
        },
        {
          "value": 0.5,
          "id": 61
        },
        {
          "value": 0.5,
          "id": 62
        },
        {
          "value": 0.5,
          "id": 63
        },
        {
          "value": 0.5,
          "id": 64
        },
        {
          "value": 0.5,
          "id": 65
        },
        {
          "value": 0.5,
          "id": 66
        },
        {
          "value": 0.5,
          "id": 67
        },
        {
          "value": 0.5,
          "id": 68
        },
        {
          "value": 0.5,
          "id": 69
        },
        {
          "value": 0.5,
          "id": 70
        },
        {
          "value": 0.5,
          "id": 71
        },
        {
          "value": 0.0,
          "id": 72
        },
        {
          "value": 1.0,
          "id": 73
        },
        {
          "value": 0.0,
          "id": 74
        },
        {
          "value": 8.0,
          "id": 75
        },
        {
          "value": 0.0,
          "id": 76
        },
        {
          "value": 0.0,
          "id": 77
        },
        {
          "value": 0.0,
          "id": 78
        },
        {
          "value": 0.0,
          "id": 79
        },
        {
          "value": 1.0,
          "id": 80
        },
        {
          "value": 3.0,
          "id": 81
        },
        {
          "value": 5.0,
          "id": 82
        },
        {
          "value": 0.0,
          "id": 83
        },
        {
          "value": 1.0,
          "id": 84
        },
        {
          "value": 0.0,
          "id": 85
        },
        {
          "value": 2.0,
          "id": 86
        }
      ],
      "rightModuleId": 970017856495217,
      "data": {
        "step": 7,
        "node": 34,
        "lastNode": 34,
        "lastGate": 34,
        "pathTraveled": [
          0,
          2,
          4,
          8,
          13,
          19,
          26,
          34
        ]
      },
      "pos": [
        -36,
        1
      ]
    },
    {
      "id": 970017856495217,
      "plugin": "AlgoritmArte",
      "model": "CyclicCA",
      "version": "2.0",
      "params": [
        {
          "value": 10.0,
          "id": 0
        },
        {
          "value": 2.0,
          "id": 1
        },
        {
          "value": 0.0,
          "id": 2
        },
        {
          "value": 26.0,
          "id": 3
        },
        {
          "value": 0.0,
          "id": 4
        },
        {
          "value": 0.0,
          "id": 5
        },
        {
          "value": 0.0,
          "id": 6
        },
        {
          "value": 25.0,
          "id": 7
        },
        {
          "value": 7.0,
          "id": 8
        },
        {
          "value": 31.0,
          "id": 9
        },
        {
          "value": 46.0,
          "id": 10
        },
        {
          "value": 17.0,
          "id": 11
        },
        {
          "value": 0.0,
          "id": 12
        }
      ],
      "leftModuleId": 675162193045537,
      "rightModuleId": 5300823774517740,
      "pos": [
        -4,
        1
      ]
    },
    {
      "id": 2563987966460249,
      "plugin": "Befaco",
      "model": "ADSR",
      "version": "2.0",
      "params": [
        {
          "value": 0.0,
          "id": 0
        },
        {
          "value": 0.0,
          "id": 1
        },
        {
          "value": 0.0,
          "id": 2
        },
        {
          "value": 0.020000001415610313,
          "id": 3
        },
        {
          "value": 0.61000025272369385,
          "id": 4
        },
        {
          "value": 0.7060006856918335,
          "id": 5
        },
        {
          "value": 0.40000000596046448,
          "id": 6
        }
      ],
      "leftModuleId": 5300823774517740,
      "rightModuleId": 7034488303373511,
      "pos": [
        35,
        1
      ]
    },
    {
      "id": 5300823774517740,
      "plugin": "Fundamental",
      "model": "VCO2",
      "version": "2.0",
      "params": [
        {
          "value": 0.0,
          "id": 0
        },
        {
          "value": 0.0,
          "id": 1
        },
        {
          "value": 0.0,
          "id": 2
        },
        {
          "value": 0.0,
          "id": 3
        },
        {
          "value": 0.0,
          "id": 4
        },
        {
          "value": 0.0,
          "id": 5
        },
        {
          "value": 0.0,
          "id": 6
        }
      ],
      "leftModuleId": 970017856495217,
      "rightModuleId": 2563987966460249,
      "data": {
        "waveLen": 1024,
        "filename": "Basic.wav"
      },
      "pos": [
        28,
        1
      ]
    },
    {
      "id": 7034488303373511,
      "plugin": "Fundamental",
      "model": "VCA-1",
      "version": "2.0",
      "params": [
        {
          "value": 1.0,
          "id": 0
        },
        {
          "value": 1.0,
          "id": 1
        }
      ],
      "leftModuleId": 2563987966460249,
      "rightModuleId": 1221409474801620,
      "pos": [
        43,
        1
      ]
    },
    {
      "id": 1221409474801620,
      "plugin": "ParableInstruments",
      "model": "Neil",
      "version": "2.0",
      "params": [
        {
          "value": 0.67710870504379272,
          "id": 0
        },
        {
          "value": 0.5,
          "id": 1
        },
        {
          "value": 0.0,
          "id": 2
        },
        {
          "value": 1.0,
          "id": 3
        },
        {
          "value": 0.69638514518737793,
          "id": 4
        },
        {
          "value": 0.68433743715286255,
          "id": 5
        },
        {
          "value": 0.58795207738876343,
          "id": 6
        },
        {
          "value": 0.58674710988998413,
          "id": 7
        },
        {
          "value": 0.5807231068611145,
          "id": 8
        },
        {
          "value": 0.74698853492736816,
          "id": 9
        },
        {
          "value": 0.0,
          "id": 10
        },
        {
          "value": 0.0,
          "id": 11
        }
      ],
      "leftModuleId": 7034488303373511,
      "data": {
        "playbackmode": 0,
        "lofi": false,
        "mono": false,
        "freeze": false,
        "buffersize": 1,
        "reverse": 0
      },
      "pos": [
        46,
        1
      ]
    },
    {
      "id": 7723813593583441,
      "plugin": "AudibleInstruments",
      "model": "Plaits",
      "version": "2.0",
      "params": [
        {
          "value": 0.0,
          "id": 0
        },
        {
          "value": 0.0,
          "id": 1
        },
        {
          "value": 0.0,
          "id": 2
        },
        {
          "value": 0.19277115166187286,
          "id": 3
        },
        {
          "value": 0.0024096386041492224,
          "id": 4
        },
        {
          "value": 0.35421565175056458,
          "id": 5
        },
        {
          "value": 0.0,
          "id": 6
        },
        {
          "value": 0.0,
          "id": 7
        },
        {
          "value": 0.0,
          "id": 8
        },
        {
          "value": 0.5,
          "id": 9
        },
        {
          "value": 0.5,
          "id": 10
        }
      ],
      "leftModuleId": 583621374817450,
      "rightModuleId": 4997822333680179,
      "data": {
        "lowCpu": false,
        "model": 14
      },
      "pos": [
        -12,
        2
      ]
    },
    {
      "id": 1950096770788738,
      "plugin": "AriaSalvatrice",
      "model": "Darius",
      "version": "2.0",
      "params": [
        {
          "value": 7.8272600173950195,
          "id": 0
        },
        {
          "value": 1.3418620824813843,
          "id": 1
        },
        {
          "value": 4.4836430549621582,
          "id": 2
        },
        {
          "value": 6.9216108322143555,
          "id": 3
        },
        {
          "value": 2.2637348175048828,
          "id": 4
        },
        {
          "value": 3.7306702136993408,
          "id": 5
        },
        {
          "value": 1.4135396480560303,
          "id": 6
        },
        {
          "value": 8.5588588714599609,
          "id": 7
        },
        {
          "value": 3.4628095626831055,
          "id": 8
        },
        {
          "value": 4.0556674003601074,
          "id": 9
        },
        {
          "value": 6.976658821105957,
          "id": 10
        },
        {
          "value": 0.7801811695098877,
          "id": 11
        },
        {
          "value": 5.0890803337097168,
          "id": 12
        },
        {
          "value": 9.6124773025512695,
          "id": 13
        },
        {
          "value": 7.1084408760070801,
          "id": 14
        },
        {
          "value": 1.5246607065200806,
          "id": 15
        },
        {
          "value": 3.3358864784240723,
          "id": 16
        },
        {
          "value": 4.7302570343017578,
          "id": 17
        },
        {
          "value": 5.3996233940124512,
          "id": 18
        },
        {
          "value": 8.9317836761474609,
          "id": 19
        },
        {
          "value": 9.7346601486206055,
          "id": 20
        },
        {
          "value": 3.384610652923584,
          "id": 21
        },
        {
          "value": 3.7095153331756592,
          "id": 22
        },
        {
          "value": 8.0463047027587891,
          "id": 23
        },
        {
          "value": 0.67900866270065308,
          "id": 24
        },
        {
          "value": 8.153010368347168,
          "id": 25
        },
        {
          "value": 6.1938815116882324,
          "id": 26
        },
        {
          "value": 2.8349850177764893,
          "id": 27
        },
        {
          "value": 0.24718615412712097,
          "id": 28
        },
        {
          "value": 8.8153762817382812,
          "id": 29
        },
        {
          "value": 2.8868088722229004,
          "id": 30
        },
        {
          "value": 5.5528287887573242,
          "id": 31
        },
        {
          "value": 0.15520375967025757,
          "id": 32
        },
        {
          "value": 9.2601699829101562,
          "id": 33
        },
        {
          "value": 5.8950052261352539,
          "id": 34
        },
        {
          "value": 5.5671882629394531,
          "id": 35
        },
        {
          "value": 0.5,
          "id": 36
        },
        {
          "value": 0.5,
          "id": 37
        },
        {
          "value": 0.5,
          "id": 38
        },
        {
          "value": 0.5,
          "id": 39
        },
        {
          "value": 0.5,
          "id": 40
        },
        {
          "value": 0.5,
          "id": 41
        },
        {
          "value": 0.5,
          "id": 42
        },
        {
          "value": 0.5,
          "id": 43
        },
        {
          "value": 0.5,
          "id": 44
        },
        {
          "value": 0.5,
          "id": 45
        },
        {
          "value": 0.5,
          "id": 46
        },
        {
          "value": 0.5,
          "id": 47
        },
        {
          "value": 0.5,
          "id": 48
        },
        {
          "value": 0.5,
          "id": 49
        },
        {
          "value": 0.5,
          "id": 50
        },
        {
          "value": 0.5,
          "id": 51
        },
        {
          "value": 0.5,
          "id": 52
        },
        {
          "value": 0.5,
          "id": 53
        },
        {
          "value": 0.5,
          "id": 54
        },
        {
          "value": 0.5,
          "id": 55
        },
        {
          "value": 0.5,
          "id": 56
        },
        {
          "value": 0.5,
          "id": 57
        },
        {
          "value": 0.5,
          "id": 58
        },
        {
          "value": 0.5,
          "id": 59
        },
        {
          "value": 0.5,
          "id": 60
        },
        {
          "value": 0.5,
          "id": 61
        },
        {
          "value": 0.5,
          "id": 62
        },
        {
          "value": 0.5,
          "id": 63
        },
        {
          "value": 0.5,
          "id": 64
        },
        {
          "value": 0.5,
          "id": 65
        },
        {
          "value": 0.5,
          "id": 66
        },
        {
          "value": 0.5,
          "id": 67
        },
        {
          "value": 0.5,
          "id": 68
        },
        {
          "value": 0.5,
          "id": 69
        },
        {
          "value": 0.5,
          "id": 70
        },
        {
          "value": 0.5,
          "id": 71
        },
        {
          "value": 0.0,
          "id": 72
        },
        {
          "value": 1.0,
          "id": 73
        },
        {
          "value": 0.0,
          "id": 74
        },
        {
          "value": 8.0,
          "id": 75
        },
        {
          "value": 0.0,
          "id": 76
        },
        {
          "value": 0.0,
          "id": 77
        },
        {
          "value": 0.0,
          "id": 78
        },
        {
          "value": 0.0,
          "id": 79
        },
        {
          "value": 1.0,
          "id": 80
        },
        {
          "value": 3.0,
          "id": 81
        },
        {
          "value": 5.0,
          "id": 82
        },
        {
          "value": 0.0,
          "id": 83
        },
        {
          "value": 1.0,
          "id": 84
        },
        {
          "value": 0.0,
          "id": 85
        },
        {
          "value": 2.0,
          "id": 86
        }
      ],
      "leftModuleId": 8337680590640370,
      "rightModuleId": 8162380445205926,
      "data": {
        "step": 1,
        "node": 1,
        "lastNode": 1,
        "lastGate": 1,
        "pathTraveled": [
          0,
          1,
          -1,
          -1,
          -1,
          -1,
          -1,
          -1
        ]
      },
      "pos": [
        -36,
        0
      ]
    },
    {
      "id": 6581257586902341,
      "plugin": "Befaco",
      "model": "ADSR",
      "version": "2.0",
      "params": [
        {
          "value": 0.0,
          "id": 0
        },
        {
          "value": 0.0,
          "id": 1
        },
        {
          "value": 0.0,
          "id": 2
        },
        {
          "value": 0.020000001415610313,
          "id": 3
        },
        {
          "value": 0.61000025272369385,
          "id": 4
        },
        {
          "value": 0.7060006856918335,
          "id": 5
        },
        {
          "value": 0.40000000596046448,
          "id": 6
        }
      ],
      "leftModuleId": 8252736124034140,
      "rightModuleId": 2375101059708854,
      "pos": [
        -10,
        3
      ]
    },
    {
      "id": 2934671454845758,
      "plugin": "Fundamental",
      "model": "VCO2",
      "version": "2.0",
      "params": [
        {
          "value": 0.0,
          "id": 0
        },
        {
          "value": 0.0,
          "id": 1
        },
        {
          "value": 0.0,
          "id": 2
        },
        {
          "value": 0.0,
          "id": 3
        },
        {
          "value": 0.0,
          "id": 4
        },
        {
          "value": 0.0,
          "id": 5
        },
        {
          "value": 0.0,
          "id": 6
        }
      ],
      "leftModuleId": 8162380445205926,
      "rightModuleId": 187459390240146,
      "data": {
        "waveLen": 1024,
        "filename": "Basic.wav"
      },
      "pos": [
        28,
        0
      ]
    },
    {
      "id": 8252736124034140,
      "plugin": "Fundamental",
      "model": "VCO2",
      "version": "2.0",
      "params": [
        {
          "value": 0.0,
          "id": 0
        },
        {
          "value": 1.0,
          "id": 1
        },
        {
          "value": -0.1807229071855545,
          "id": 2
        },
        {
          "value": 0.35542207956314087,
          "id": 3
        },
        {
          "value": 0.0,
          "id": 4
        },
        {
          "value": 0.0,
          "id": 5
        },
        {
          "value": 0.0,
          "id": 6
        }
      ],
      "leftModuleId": 3367264330133207,
      "rightModuleId": 6581257586902341,
      "data": {
        "waveLen": 1024,
        "filename": "Basic.wav"
      },
      "pos": [
        -17,
        3
      ]
    },
    {
      "id": 2375101059708854,
      "plugin": "Fundamental",
      "model": "VCA-1",
      "version": "2.0",
      "params": [
        {
          "value": 1.0,
          "id": 0
        },
        {
          "value": 1.0,
          "id": 1
        }
      ],
      "leftModuleId": 6581257586902341,
      "rightModuleId": 2800094506587001,
      "pos": [
        -2,
        3
      ]
    },
    {
      "id": 2800094506587001,
      "plugin": "CosineKitty-Sapphire",
      "model": "Galaxy",
      "version": "2.0",
      "params": [
        {
          "value": 0.41686797142028809,
          "id": 0
        },
        {
          "value": 0.0,
          "id": 1
        },
        {
          "value": 0.76626503467559814,
          "id": 2
        },
        {
          "value": 0.0,
          "id": 3
        },
        {
          "value": 0.096385471522808075,
          "id": 4
        },
        {
          "value": 0.0,
          "id": 5
        },
        {
          "value": 0.88795202970504761,
          "id": 6
        },
        {
          "value": 0.0,
          "id": 7
        },
        {
          "value": 0.52168691158294678,
          "id": 8
        },
        {
          "value": 0.0,
          "id": 9
        }
      ],
      "leftModuleId": 2375101059708854,
      "rightModuleId": 3200840800146557,
      "data": {
        "lowSensitivityAttenuverters": [],
        "voltageFlippedOutputPorts": [],
        "enableStereoSplitter": false,
        "enableStereoMerge": false,
        "neonMode": false
      },
      "pos": [
        1,
        3
      ]
    },
    {
      "id": 583621374817450,
      "plugin": "AudibleInstruments",
      "model": "Plaits",
      "version": "2.0",
      "params": [
        {
          "value": 0.0,
          "id": 0
        },
        {
          "value": 0.0,
          "id": 1
        },
        {
          "value": 0.0,
          "id": 2
        },
        {
          "value": 1.0,
          "id": 3
        },
        {
          "value": 0.96144533157348633,
          "id": 4
        },
        {
          "value": 0.31325292587280273,
          "id": 5
        },
        {
          "value": 0.0,
          "id": 6
        },
        {
          "value": 0.0,
          "id": 7
        },
        {
          "value": 0.50133329629898071,
          "id": 8
        },
        {
          "value": 0.5,
          "id": 9
        },
        {
          "value": 0.5,
          "id": 10
        }
      ],
      "leftModuleId": 6510734090703676,
      "rightModuleId": 7723813593583441,
      "data": {
        "lowCpu": false,
        "model": 2
      },
      "pos": [
        -24,
        2
      ]
    },
    {
      "id": 3200840800146557,
      "plugin": "ArableInstruments",
      "model": "Joni",
      "version": "2.0",
      "params": [
        {
          "value": 0.67831313610076904,
          "id": 0
        },
        {
          "value": 0.84698867797851562,
          "id": 1
        },
        {
          "value": 0.62650597095489502,
          "id": 2
        },
        {
          "value": 1.0,
          "id": 3
        },
        {
          "value": 0.64578139781951904,
          "id": 4
        },
        {
          "value": 0.64819246530532837,
          "id": 5
        },
        {
          "value": 0.69518071413040161,
          "id": 6
        },
        {
          "value": 0.70240974426269531,
          "id": 7
        },
        {
          "value": 0.76024109125137329,
          "id": 8
        },
        {
          "value": 0.72650641202926636,
          "id": 9
        },
        {
          "value": 0.0,
          "id": 10
        }
      ],
      "leftModuleId": 2800094506587001,
      "rightModuleId": 3716485179694942,
      "data": {
        "playbackmode": 0,
        "lofi": false,
        "mono": false,
        "freeze": false,
        "buffersize": 1
      },
      "pos": [
        7,
        3
      ]
    },
    {
      "id": 4455775290485634,
      "plugin": "Befaco",
      "model": "Kickall",
      "version": "2.0",
      "params": [
        {
          "value": 75.485504150390625,
          "id": 0
        },
        {
          "value": 0.0,
          "id": 1
        },
        {
          "value": 0.41566282510757446,
          "id": 2
        },
        {
          "value": 0.0,
          "id": 3
        },
        {
          "value": 0.81625038385391235,
          "id": 4
        },
        {
          "value": 0.087500005960464478,
          "id": 5
        }
      ],
      "rightModuleId": 6510734090703676,
      "pos": [
        -36,
        2
      ]
    },
    {
      "id": 6510734090703676,
      "plugin": "Befaco",
      "model": "Kickall",
      "version": "2.0",
      "params": [
        {
          "value": 27.5,
          "id": 0
        },
        {
          "value": 0.0,
          "id": 1
        },
        {
          "value": 0.25542226433753967,
          "id": 2
        },
        {
          "value": 0.82199949026107788,
          "id": 3
        },
        {
          "value": 0.81625038385391235,
          "id": 4
        },
        {
          "value": 0.087500005960464478,
          "id": 5
        }
      ],
      "leftModuleId": 4455775290485634,
      "rightModuleId": 583621374817450,
      "pos": [
        -30,
        2
      ]
    },
    {
      "id": 187459390240146,
      "plugin": "Befaco",
      "model": "ADSR",
      "version": "2.0",
      "params": [
        {
          "value": 0.0,
          "id": 0
        },
        {
          "value": 0.0,
          "id": 1
        },
        {
          "value": 0.0,
          "id": 2
        },
        {
          "value": 0.020000001415610313,
          "id": 3
        },
        {
          "value": 0.61000025272369385,
          "id": 4
        },
        {
          "value": 0.7060006856918335,
          "id": 5
        },
        {
          "value": 0.40000000596046448,
          "id": 6
        }
      ],
      "leftModuleId": 2934671454845758,
      "rightModuleId": 3092563355440601,
      "pos": [
        35,
        0
      ]
    },
    {
      "id": 3092563355440601,
      "plugin": "Fundamental",
      "model": "VCA-1",
      "version": "2.0",
      "params": [
        {
          "value": 1.0,
          "id": 0
        },
        {
          "value": 1.0,
          "id": 1
        }
      ],
      "leftModuleId": 187459390240146,
      "pos": [
        43,
        0
      ]
    },
    {
      "id": 2868122203626133,
      "plugin": "mscHack",
      "model": "Mix_16_4_4",
      "version": "2.0",
      "params": [
        {
          "value": 0.96024036407470703,
          "id": 0
        },
        {
          "value": 0.10400009900331497,
          "id": 1
        },
        {
          "value": 0.047999981790781021,
          "id": 2
        },
        {
          "value": 1.0,
          "id": 3
        },
        {
          "value": 0.70799911022186279,
          "id": 4
        },
        {
          "value": 0.85600072145462036,
          "id": 5
        },
        {
          "value": 0.82599961757659912,
          "id": 6
        },
        {
          "value": 0.0,
          "id": 7
        },
        {
          "value": 0.0,
          "id": 8
        },
        {
          "value": 0.0,
          "id": 9
        },
        {
          "value": 0.0,
          "id": 10
        },
        {
          "value": 0.0,
          "id": 11
        },
        {
          "value": 0.0,
          "id": 12
        },
        {
          "value": 0.0,
          "id": 13
        },
        {
          "value": 0.0,
          "id": 14
        },
        {
          "value": 0.0,
          "id": 15
        },
        {
          "value": 0.0,
          "id": 16
        },
        {
          "value": 0.0,
          "id": 17
        },
        {
          "value": 0.0,
          "id": 18
        },
        {
          "value": 0.0,
          "id": 19
        },
        {
          "value": 0.0,
          "id": 20
        },
        {
          "value": 0.0,
          "id": 21
        },
        {
          "value": 0.0,
          "id": 22
        },
        {
          "value": 0.0,
          "id": 23
        },
        {
          "value": 0.0,
          "id": 24
        },
        {
          "value": 0.0,
          "id": 25
        },
        {
          "value": 0.0,
          "id": 26
        },
        {
          "value": 0.0,
          "id": 27
        },
        {
          "value": 0.0,
          "id": 28
        },
        {
          "value": 0.0,
          "id": 29
        },
        {
          "value": 0.0,
          "id": 30
        },
        {
          "value": 0.0,
          "id": 31
        },
        {
          "value": 0.0,
          "id": 32
        },
        {
          "value": 0.0,
          "id": 33
        },
        {
          "value": 0.0,
          "id": 34
        },
        {
          "value": 0.0,
          "id": 35
        },
        {
          "value": 0.0,
          "id": 36
        },
        {
          "value": 0.0,
          "id": 37
        },
        {
          "value": 0.0,
          "id": 38
        },
        {
          "value": 0.0,
          "id": 39
        },
        {
          "value": 0.0,
          "id": 40
        },
        {
          "value": 0.0,
          "id": 41
        },
        {
          "value": 0.0,
          "id": 42
        },
        {
          "value": 0.0,
          "id": 43
        },
        {
          "value": 0.0,
          "id": 44
        },
        {
          "value": 0.0,
          "id": 45
        },
        {
          "value": 0.0,
          "id": 46
        },
        {
          "value": 0.0,
          "id": 47
        },
        {
          "value": 0.0,
          "id": 48
        },
        {
          "value": 0.5,
          "id": 49
        },
        {
          "value": 0.5,
          "id": 50
        },
        {
          "value": 0.5,
          "id": 51
        },
        {
          "value": 0.5,
          "id": 52
        },
        {
          "value": 0.5,
          "id": 53
        },
        {
          "value": 0.5,
          "id": 54
        },
        {
          "value": 0.5,
          "id": 55
        },
        {
          "value": 0.5,
          "id": 56
        },
        {
          "value": 0.5,
          "id": 57
        },
        {
          "value": 0.5,
          "id": 58
        },
        {
          "value": 0.5,
          "id": 59
        },
        {
          "value": 0.5,
          "id": 60
        },
        {
          "value": 0.5,
          "id": 61
        },
        {
          "value": 0.5,
          "id": 62
        },
        {
          "value": 0.5,
          "id": 63
        },
        {
          "value": 0.5,
          "id": 64
        },
        {
          "value": 0.5,
          "id": 65
        },
        {
          "value": 0.5,
          "id": 66
        },
        {
          "value": 0.5,
          "id": 67
        },
        {
          "value": 0.5,
          "id": 68
        },
        {
          "value": 0.5,
          "id": 69
        },
        {
          "value": 0.5,
          "id": 70
        },
        {
          "value": 0.5,
          "id": 71
        },
        {
          "value": 0.5,
          "id": 72
        },
        {
          "value": 0.5,
          "id": 73
        },
        {
          "value": 0.5,
          "id": 74
        },
        {
          "value": 0.5,
          "id": 75
        },
        {
          "value": 0.5,
          "id": 76
        },
        {
          "value": 0.5,
          "id": 77
        },
        {
          "value": 0.5,
          "id": 78
        },
        {
          "value": 0.5,
          "id": 79
        },
        {
          "value": 0.5,
          "id": 80
        },
        {
          "value": 0.5,
          "id": 81
        },
        {
          "value": 0.5,
          "id": 82
        },
        {
          "value": 0.5,
          "id": 83
        },
        {
          "value": 0.5,
          "id": 84
        },
        {
          "value": 0.5,
          "id": 85
        },
        {
          "value": 0.5,
          "id": 86
        },
        {
          "value": 0.5,
          "id": 87
        },
        {
          "value": 0.5,
          "id": 88
        },
        {
          "value": 0.5,
          "id": 89
        },
        {
          "value": 0.5,
          "id": 90
        },
        {
          "value": 0.5,
          "id": 91
        },
        {
          "value": 0.5,
          "id": 92
        },
        {
          "value": 0.5,
          "id": 93
        },
        {
          "value": 0.5,
          "id": 94
        },
        {
          "value": 0.5,
          "id": 95
        },
        {
          "value": 0.5,
          "id": 96
        },
        {
          "value": 0.5,
          "id": 97
        },
        {
          "value": 0.5,
          "id": 98
        },
        {
          "value": 0.5,
          "id": 99
        },
        {
          "value": 0.5,
          "id": 100
        },
        {
          "value": 0.5,
          "id": 101
        },
        {
          "value": 0.5,
          "id": 102
        },
        {
          "value": 0.5,
          "id": 103
        },
        {
          "value": 0.5,
          "id": 104
        },
        {
          "value": 0.5,
          "id": 105
        },
        {
          "value": 0.5,
          "id": 106
        },
        {
          "value": 0.5,
          "id": 107
        },
        {
          "value": 0.5,
          "id": 108
        },
        {
          "value": 0.5,
          "id": 109
        },
        {
          "value": 0.5,
          "id": 110
        },
        {
          "value": 0.5,
          "id": 111
        },
        {
          "value": 0.5,
          "id": 112
        },
        {
          "value": 0.5,
          "id": 113
        },
        {
          "value": 0.5,
          "id": 114
        },
        {
          "value": 0.5,
          "id": 115
        },
        {
          "value": 0.5,
          "id": 116
        },
        {
          "value": 0.5,
          "id": 117
        },
        {
          "value": 0.5,
          "id": 118
        },
        {
          "value": 0.5,
          "id": 119
        },
        {
          "value": 0.5,
          "id": 120
        },
        {
          "value": 0.0,
          "id": 121
        },
        {
          "value": 0.0,
          "id": 122
        },
        {
          "value": 0.0,
          "id": 123
        },
        {
          "value": 0.0,
          "id": 124
        },
        {
          "value": 0.0,
          "id": 125
        },
        {
          "value": 0.0,
          "id": 126
        },
        {
          "value": 0.0,
          "id": 127
        },
        {
          "value": 0.0,
          "id": 128
        },
        {
          "value": 0.0,
          "id": 129
        },
        {
          "value": 0.0,
          "id": 130
        },
        {
          "value": 0.0,
          "id": 131
        },
        {
          "value": 0.0,
          "id": 132
        },
        {
          "value": 0.0,
          "id": 133
        },
        {
          "value": 0.0,
          "id": 134
        },
        {
          "value": 0.0,
          "id": 135
        },
        {
          "value": 0.0,
          "id": 136
        },
        {
          "value": 0.0,
          "id": 137
        },
        {
          "value": 0.0,
          "id": 138
        },
        {
          "value": 0.0,
          "id": 139
        },
        {
          "value": 0.0,
          "id": 140
        },
        {
          "value": 0.0,
          "id": 141
        },
        {
          "value": 0.0,
          "id": 142
        },
        {
          "value": 0.0,
          "id": 143
        },
        {
          "value": 0.0,
          "id": 144
        },
        {
          "value": 0.0,
          "id": 145
        },
        {
          "value": 0.0,
          "id": 146
        },
        {
          "value": 0.0,
          "id": 147
        },
        {
          "value": 0.0,
          "id": 148
        },
        {
          "value": 0.0,
          "id": 149
        },
        {
          "value": 0.0,
          "id": 150
        },
        {
          "value": 0.0,
          "id": 151
        },
        {
          "value": 0.0,
          "id": 152
        },
        {
          "value": 0.0,
          "id": 153
        },
        {
          "value": 0.0,
          "id": 154
        },
        {
          "value": 0.0,
          "id": 155
        },
        {
          "value": 0.0,
          "id": 156
        },
        {
          "value": 0.0,
          "id": 157
        },
        {
          "value": 0.0,
          "id": 158
        },
        {
          "value": 0.0,
          "id": 159
        },
        {
          "value": 0.0,
          "id": 160
        },
        {
          "value": 0.0,
          "id": 161
        },
        {
          "value": 0.0,
          "id": 162
        },
        {
          "value": 0.0,
          "id": 163
        },
        {
          "value": 0.0,
          "id": 164
        },
        {
          "value": 0.0,
          "id": 165
        },
        {
          "value": 0.0,
          "id": 166
        },
        {
          "value": 0.0,
          "id": 167
        },
        {
          "value": 0.0,
          "id": 168
        },
        {
          "value": 0.0,
          "id": 169
        },
        {
          "value": 0.0,
          "id": 170
        },
        {
          "value": 0.0,
          "id": 171
        },
        {
          "value": 0.0,
          "id": 172
        },
        {
          "value": 0.0,
          "id": 173
        },
        {
          "value": 0.0,
          "id": 174
        },
        {
          "value": 0.0,
          "id": 175
        },
        {
          "value": 0.0,
          "id": 176
        },
        {
          "value": 0.0,
          "id": 177
        },
        {
          "value": 0.0,
          "id": 178
        },
        {
          "value": 0.0,
          "id": 179
        },
        {
          "value": 0.0,
          "id": 180
        },
        {
          "value": 0.0,
          "id": 181
        },
        {
          "value": 0.0,
          "id": 182
        },
        {
          "value": 0.0,
          "id": 183
        },
        {
          "value": 0.0,
          "id": 184
        },
        {
          "value": 0.0,
          "id": 185
        },
        {
          "value": 0.0,
          "id": 186
        },
        {
          "value": 0.0,
          "id": 187
        },
        {
          "value": 0.0,
          "id": 188
        },
        {
          "value": 0.0,
          "id": 189
        },
        {
          "value": 0.0,
          "id": 190
        },
        {
          "value": 0.0,
          "id": 191
        },
        {
          "value": 0.0,
          "id": 192
        },
        {
          "value": 0.0,
          "id": 193
        },
        {
          "value": 0.0,
          "id": 194
        },
        {
          "value": 0.0,
          "id": 195
        },
        {
          "value": 0.0,
          "id": 196
        },
        {
          "value": 0.0,
          "id": 197
        },
        {
          "value": 0.0,
          "id": 198
        },
        {
          "value": 0.0,
          "id": 199
        },
        {
          "value": 0.0,
          "id": 200
        },
        {
          "value": 0.48433724045753479,
          "id": 201
        },
        {
          "value": 0.0,
          "id": 202
        },
        {
          "value": 0.0,
          "id": 203
        },
        {
          "value": 0.0,
          "id": 204
        }
      ],
      "leftModuleId": 4997822333680179,
      "rightModuleId": 1049604205694367,
      "data": {
        "m_bMuteStates": [
          false,
          false,
          false,
          false,
          false,
          false,
          false,
          false,
          false,
          false,
          false,
          false,
          false,
          false,
          false,
          false,
          false,
          false,
          false,
          false,
          false,
          false,
          false,
          false
        ],
        "m_bSoloStates": [
          false,
          false,
          false,
          false,
          false,
          false,
          false,
          false,
          false,
          false,
          false,
          false,
          false,
          false,
          false,
          false,
          false,
          false,
          false,
          false,
          false,
          false,
          false,
          false
        ],
        "m_iRouteGroup": [
          4,
          4,
          4,
          4,
          4,
          4,
          4,
          4,
          4,
          4,
          4,
          4,
          4,
          4,
          4,
          4
        ],
        "m_bGroupPreMute": [
          true
        ],
        "m_bGainLevelx2": [
          false
        ],
        "m_bPreFader": [
          false,
          false,
          false,
          false,
          false,
          false,
          false,
          false,
          false,
          false,
          false,
          false,
          false,
          false,
          false,
          false,
          false,
          false,
          false,
          false
        ],
        "m_bAuxIgnoreSolo": [
          false
        ]
      },
      "pos": [
        10,
        2
      ]
    },
    {
      "id": 3716485179694942,
      "plugin": "ParableInstruments",
      "model": "Neil",
      "version": "2.0",
      "params": [
        {
          "value": 0.5,
          "id": 0
        },
        {
          "value": 0.5,
          "id": 1
        },
        {
          "value": 0.0,
          "id": 2
        },
        {
          "value": 0.5,
          "id": 3
        },
        {
          "value": 0.5,
          "id": 4
        },
        {
          "value": 0.5,
          "id": 5
        },
        {
          "value": 0.5,
          "id": 6
        },
        {
          "value": 0.5,
          "id": 7
        },
        {
          "value": 0.5,
          "id": 8
        },
        {
          "value": 0.5,
          "id": 9
        },
        {
          "value": 0.0,
          "id": 10
        },
        {
          "value": 0.0,
          "id": 11
        }
      ],
      "leftModuleId": 3200840800146557,
      "data": {
        "playbackmode": 0,
        "lofi": false,
        "mono": false,
        "freeze": false,
        "buffersize": 1,
        "reverse": 0
      },
      "pos": [
        38,
        3
      ]
    },
    {
      "id": 4997822333680179,
      "plugin": "Bidoo",
      "model": "fLAME",
      "version": "2.0",
      "params": [
        {
          "value": 0.0,
          "id": 0
        },
        {
          "value": 0.0,
          "id": 1
        },
        {
          "value": 0.0,
          "id": 2
        },
        {
          "value": 0.0,
          "id": 3
        },
        {
          "value": 0.0,
          "id": 4
        },
        {
          "value": 0.0,
          "id": 5
        }
      ],
      "leftModuleId": 7723813593583441,
      "rightModuleId": 2868122203626133,
      "data": {
        "xBox": 33.3046875,
        "yBox": 82.2421875,
        "wBox": 0.0,
        "hBox": 0.0,
        "frameSize": 1024.0,
        "colorScheme": 0.0
      },
      "pos": [
        0,
        2
      ]
    },
    {
      "id": 8162380445205926,
      "plugin": "AlgoritmArte",
      "model": "CyclicCA",
      "version": "2.0",
      "params": [
        {
          "value": 10.0,
          "id": 0
        },
        {
          "value": 2.0,
          "id": 1
        },
        {
          "value": 0.0,
          "id": 2
        },
        {
          "value": 26.0,
          "id": 3
        },
        {
          "value": 0.0,
          "id": 4
        },
        {
          "value": 0.0,
          "id": 5
        },
        {
          "value": 0.0,
          "id": 6
        },
        {
          "value": 25.0,
          "id": 7
        },
        {
          "value": 42.0,
          "id": 8
        },
        {
          "value": 19.0,
          "id": 9
        },
        {
          "value": 21.0,
          "id": 10
        },
        {
          "value": 11.0,
          "id": 11
        },
        {
          "value": 0.0,
          "id": 12
        }
      ],
      "leftModuleId": 1950096770788738,
      "rightModuleId": 2934671454845758,
      "pos": [
        -4,
        0
      ]
    },
    {
      "id": 1049604205694367,
      "plugin": "Cardinal",
      "model": "HostAudio2",
      "version": "2.0",
      "params": [
        {
          "value": 1.0,
          "id": 0
        }
      ],
      "leftModuleId": 2868122203626133,
      "data": {
        "dcFilter": true
      },
      "pos": [
        55,
        2
      ]
    }
  ],
  "cables": [
    {
      "id": 8267456105677147,
      "outputModuleId": 187459390240146,
      "outputId": 0,
      "inputModuleId": 3092563355440601,
      "inputId": 0,
      "color": "#67ff52"
    },
    {
      "id": 1784118767345101,
      "outputModuleId": 8337680590640370,
      "outputId": 0,
      "inputModuleId": 8162380445205926,
      "inputId": 5,
      "color": "#e8ff52"
    },
    {
      "id": 2763764553788811,
      "outputModuleId": 2934671454845758,
      "outputId": 0,
      "inputModuleId": 3092563355440601,
      "inputId": 1,
      "color": "#ffd452"
    },
    {
      "id": 2478470704762419,
      "outputModuleId": 3367264330133207,
      "outputId": 0,
      "inputModuleId": 583621374817450,
      "inputId": 3,
      "color": "#ff5293"
    },
    {
      "id": 7816261198436535,
      "outputModuleId": 8337680590640370,
      "outputId": 2,
      "inputModuleId": 583621374817450,
      "inputId": 5,
      "color": "#e952ff"
    },
    {
      "id": 7175745866229290,
      "outputModuleId": 4455775290485634,
      "outputId": 0,
      "inputModuleId": 2868122203626133,
      "inputId": 0,
      "color": "#ffd452"
    },
    {
      "id": 3848275470970914,
      "outputModuleId": 6510734090703676,
      "outputId": 0,
      "inputModuleId": 2868122203626133,
      "inputId": 1,
      "color": "#ff52d4"
    },
    {
      "id": 149339854153275,
      "outputModuleId": 2800094506587001,
      "outputId": 0,
      "inputModuleId": 2868122203626133,
      "inputId": 2,
      "color": "#a8ff52"
    },
    {
      "id": 1635816703873985,
      "outputModuleId": 3092563355440601,
      "outputId": 0,
      "inputModuleId": 2868122203626133,
      "inputId": 3,
      "color": "#a8ff52"
    },
    {
      "id": 2155827365314152,
      "outputModuleId": 3716485179694942,
      "outputId": 0,
      "inputModuleId": 2868122203626133,
      "inputId": 20,
      "color": "#52ff7d"
    },
    {
      "id": 6936331149127551,
      "outputModuleId": 3716485179694942,
      "outputId": 1,
      "inputModuleId": 2868122203626133,
      "inputId": 44,
      "color": "#52ffbe"
    },
    {
      "id": 4013252853474763,
      "outputModuleId": 2868122203626133,
      "outputId": 10,
      "inputModuleId": 3716485179694942,
      "inputId": 9,
      "color": "#a8ff52"
    },
    {
      "id": 6977892031443596,
      "outputModuleId": 2868122203626133,
      "outputId": 14,
      "inputModuleId": 3716485179694942,
      "inputId": 10,
      "color": "#67ff52"
    },
    {
      "id": 619199635736521,
      "outputModuleId": 2868122203626133,
      "outputId": 0,
      "inputModuleId": 1049604205694367,
      "inputId": 0,
      "color": "#ff5252"
    },
    {
      "id": 563043228817272,
      "outputModuleId": 2868122203626133,
      "outputId": 1,
      "inputModuleId": 4997822333680179,
      "inputId": 0,
      "color": "#52beff"
    },
    {
      "id": 5719136172679026,
      "outputModuleId": 2868122203626133,
      "outputId": 1,
      "inputModuleId": 1049604205694367,
      "inputId": 1,
      "color": "#ff9352"
    },
    {
      "id": 1271322188476293,
      "outputModuleId": 583621374817450,
      "outputId": 0,
      "inputModuleId": 3200840800146557,
      "inputId": 9,
      "color": "#52ff7d"
    },
    {
      "id": 5340785168539220,
      "outputModuleId": 3200840800146557,
      "outputId": 0,
      "inputModuleId": 2868122203626133,
      "inputId": 4,
      "color": "#6752ff"
    },
    {
      "id": 6584644415538964,
      "outputModuleId": 8337680590640370,
      "outputId": 9,
      "inputModuleId": 3062073080645552,
      "inputId": 3,
      "color": "#a852ff"
    },
    {
      "id": 747560047486263,
      "outputModuleId": 8337680590640370,
      "outputId": 2,
      "inputModuleId": 8252736124034140,
      "inputId": 1,
      "color": "#e952ff"
    },
    {
      "id": 3340389862251951,
      "outputModuleId": 8337680590640370,
      "outputId": 1,
      "inputModuleId": 8162380445205926,
      "inputId": 3,
      "color": "#a8ff52"
    },
    {
      "id": 3833941323595527,
      "outputModuleId": 8337680590640370,
      "outputId": 1,
      "inputModuleId": 6510734090703676,
      "inputId": 0,
      "color": "#e952ff"
    },
    {
      "id": 6882804786418819,
      "outputModuleId": 8337680590640370,
      "outputId": 1,
      "inputModuleId": 4455775290485634,
      "inputId": 0,
      "color": "#ff9352"
    },
    {
      "id": 8863306331651747,
      "outputModuleId": 8337680590640370,
      "outputId": 0,
      "inputModuleId": 187459390240146,
      "inputId": 0,
      "color": "#a852ff"
    },
    {
      "id": 1241755665487332,
      "outputModuleId": 3062073080645552,
      "outputId": 0,
      "inputModuleId": 3367264330133207,
      "inputId": 0,
      "color": "#ffd452"
    },
    {
      "id": 4016672531753655,
      "outputModuleId": 6581257586902341,
      "outputId": 0,
      "inputModuleId": 2375101059708854,
      "inputId": 0,
      "color": "#67ff52"
    },
    {
      "id": 5286709697935725,
      "outputModuleId": 8252736124034140,
      "outputId": 0,
      "inputModuleId": 2375101059708854,
      "inputId": 1,
      "color": "#527dff"
    },
    {
      "id": 6531823724702009,
      "outputModuleId": 2375101059708854,
      "outputId": 0,
      "inputModuleId": 2800094506587001,
      "inputId": 0,
      "color": "#e8ff52"
    },
    {
      "id": 5836746511068128,
      "outputModuleId": 8337680590640370,
      "outputId": 2,
      "inputModuleId": 1950096770788738,
      "inputId": 2,
      "color": "#527dff"
    },
    {
      "id": 1543680135877620,
      "outputModuleId": 1950096770788738,
      "outputId": 36,
      "inputModuleId": 2934671454845758,
      "inputId": 3,
      "color": "#52ff7d"
    },
    {
      "id": 1286738050177761,
      "outputModuleId": 1950096770788738,
      "outputId": 36,
      "inputModuleId": 583621374817450,
      "inputId": 7,
      "color": "#ffd452"
    },
    {
      "id": 1280047361983368,
      "outputModuleId": 1950096770788738,
      "outputId": 36,
      "inputModuleId": 6510734090703676,
      "inputId": 2,
      "color": "#ff5252"
    },
    {
      "id": 3087687875022185,
      "outputModuleId": 1950096770788738,
      "outputId": 36,
      "inputModuleId": 8252736124034140,
      "inputId": 3,
      "color": "#52ffbe"
    },
    {
      "id": 6700415560273796,
      "outputModuleId": 1950096770788738,
      "outputId": 37,
      "inputModuleId": 6581257586902341,
      "inputId": 0,
      "color": "#a8ff52"
    },
    {
      "id": 592373405866071,
      "outputModuleId": 2563987966460249,
      "outputId": 0,
      "inputModuleId": 7034488303373511,
      "inputId": 0,
      "color": "#67ff52"
    },
    {
      "id": 5898480142995470,
      "outputModuleId": 5300823774517740,
      "outputId": 0,
      "inputModuleId": 7034488303373511,
      "inputId": 1,
      "color": "#ffd452"
    },
    {
      "id": 5638766942720761,
      "outputModuleId": 675162193045537,
      "outputId": 36,
      "inputModuleId": 5300823774517740,
      "inputId": 3,
      "color": "#52ff7d"
    },
    {
      "id": 2169457383279113,
      "outputModuleId": 8337680590640370,
      "outputId": 4,
      "inputModuleId": 675162193045537,
      "inputId": 2,
      "color": "#52ff7d"
    },
    {
      "id": 7119919286899339,
      "outputModuleId": 675162193045537,
      "outputId": 37,
      "inputModuleId": 2563987966460249,
      "inputId": 0,
      "color": "#52beff"
    },
    {
      "id": 2733549839169678,
      "outputModuleId": 675162193045537,
      "outputId": 37,
      "inputModuleId": 970017856495217,
      "inputId": 2,
      "color": "#527dff"
    },
    {
      "id": 2733608944550915,
      "outputModuleId": 7034488303373511,
      "outputId": 0,
      "inputModuleId": 1221409474801620,
      "inputId": 9,
      "color": "#52ffbe"
    },
    {
      "id": 4591653523797358,
      "outputModuleId": 1221409474801620,
      "outputId": 0,
      "inputModuleId": 2868122203626133,
      "inputId": 5,
      "color": "#6752ff"
    },
    {
      "id": 3518322698467036,
      "outputModuleId": 1221409474801620,
      "outputId": 1,
      "inputModuleId": 2868122203626133,
      "inputId": 29,
      "color": "#a852ff"
    },
    {
      "id": 1712468133190756,
      "outputModuleId": 3367264330133207,
      "outputId": 0,
      "inputModuleId": 2868122203626133,
      "inputId": 69,
      "color": "#e952ff"
    },
    {
      "id": 2422324447303747,
      "outputModuleId": 7723813593583441,
      "outputId": 0,
      "inputModuleId": 2868122203626133,
      "inputId": 6,
      "color": "#ff5293"
    },
    {
      "id": 8158855363293183,
      "outputModuleId": 8337680590640370,
      "outputId": 2,
      "inputModuleId": 7723813593583441,
      "inputId": 5,
      "color": "#ff5252"
    },
    {
      "id": 8362693308641829,
      "outputModuleId": 675162193045537,
      "outputId": 36,
      "inputModuleId": 7723813593583441,
      "inputId": 7,
      "color": "#ff9352"
    }
  ]
}
